# File created by Blade
# Date/Time:  Fri Jan 16 19:32:27 2015
#---------------------------------------------------------
:version 1.10
:name HOM
:units
  mass 1.0
  length 1.000000
  angle deg
:documentation
     Acclaim Skeleton File
:root
   axis xyz
   order TX TY TZ RX RY RZ
   position 0.000000 0.000000 0.000000
   orientation 0 0 0
:bonedata
   begin
      id 1
      name Spine_dum
      direction 0.000000 1.000000 0.000000
      length 7.067664
      axis 0.0 0.0 0.0 xyz
   end
   begin
      id 2
      name LeftUpLeg_dum
      direction 1.000000 0.000000 0.000000
      length 4.013002
      axis 0.0 0.0 0.0 xyz
   end
   begin
      id 3
      name RightUpLeg_dum
      direction -1.000000 0.000000 0.000000
      length 4.013002
      axis 0.0 0.0 0.0 xyz
   end
   begin
      id 4
      name Spine
      direction 0.000000 1.000000 0.000000
      length 0.000000
      axis 0.0 0.0 0.0 xyz
      dof rx ry rz
   end
   begin
      id 5
      name Spine_dum1
      direction 0.000000 1.000000 0.000000
      length 15.039886
      axis 0.0 0.0 0.0 xyz
   end
   begin
      id 6
      name Spine_dum2
      direction 0.000000 1.000000 0.000000
      length 10.530368
      axis 0.0 0.0 0.0 xyz
   end
   begin
      id 7
      name Spine_dum3
      direction 0.000000 1.000000 0.000000
      length 10.530368
      axis 0.0 0.0 0.0 xyz
   end
   begin
      id 8
      name Head
      direction 0.000000 1.000000 0.000000
      length 4.527550
      axis 0.0 0.0 0.0 xyz
      dof rx ry rz
   end
   begin
      id 9
      name LeftShoulder
      direction 1.000000 0.000000 0.000000
      length 7.028855
      axis 0.0 0.0 -90.0 xyz
      dof rx ry rz
   end
   begin
      id 10
      name LeftArm
      direction 1.000000 0.000000 0.000000
      length 10.797705
      axis 0.0 0.0 -90.0 xyz
      dof rx ry rz
   end
   begin
      id 11
      name LeftForeArm
      direction 1.000000 0.000000 0.000000
      length 7.907442
      axis 0.0 0.0 -90.0 xyz
      dof ry rz rx
   end
   begin
      id 12
      name LeftHand
      direction 0.000000 0.000000 0.000000
      length 0.000000
      axis 0.0 0.0 -90.0 xyz
      dof rx ry rz
   end
   begin
      id 13
      name LeftHand_dum1
      direction 0.000000 0.000000 0.000000
      length 0.000000
      axis 0.0 0.0 -90.0 xyz
   end
   begin
      id 14
      name LeftHand_dum2
      direction 1.000000 0.000000 0.000000
      length 3.937000
      axis 0.0 0.0 -90.0 xyz
   end
   begin
      id 15
      name LeftHandThumb1
      direction 0.000000 0.000000 1.000000
      length 3.937000
      axis 0.0 0.0 -90.0 xyz
      dof rx rz ry
   end
   begin
      id 16
      name RightShoulder
      direction -1.000000 0.000000 0.000000
      length 7.028855
      axis 0.0 0.0 90.0 xyz
      dof rx ry rz
   end
   begin
      id 17
      name RightArm
      direction -1.000000 0.000000 0.000000
      length 10.797705
      axis 0.0 0.0 90.0 xyz
      dof rx ry rz
   end
   begin
      id 18
      name RightForeArm
      direction -1.000000 0.000000 0.000000
      length 7.907442
      axis 0.0 0.0 90.0 xyz
      dof ry rz rx
   end
   begin
      id 19
      name RightHand
      direction 0.000000 0.000000 0.000000
      length 0.000000
      axis 0.0 0.0 90.0 xyz
      dof rx ry rz
   end
   begin
      id 20
      name RightHand_dum1
      direction 0.000000 0.000000 0.000000
      length 0.000000
      axis 0.0 0.0 90.0 xyz
   end
   begin
      id 21
      name RightHand_dum2
      direction -1.000000 0.000000 0.000000
      length 3.937000
      axis 0.0 0.0 90.0 xyz
   end
   begin
      id 22
      name RightHandThumb1
      direction 0.000000 0.000000 1.000000
      length 3.937000
      axis 0.0 0.0 90.0 xyz
      dof rx rz ry
   end
   begin
      id 23
      name LeftUpLeg
      direction 0.000000 -1.000000 0.000000
      length 16.899758
      axis 0.0 0.0 0.0 xyz
      dof rx ry rz
   end
   begin
      id 24
      name LeftLeg
      direction 0.000000 -1.000000 0.000000
      length 17.389183
      axis 0.0 0.0 0.0 xyz
      dof rx ry rz
   end
   begin
      id 25
      name LeftFoot
      direction 0.000000 -0.258819 0.965926
      length 4.924528
      axis 15.0 0.0 0.0 xyz
      dof rx ry rz
   end
   begin
      id 26
      name LeftToeBase
      direction 0.000000 0.000000 1.000000
      length 2.952750
      axis 0.0 0.0 0.0 xyz
      dof rx ry rz
   end
   begin
      id 27
      name RightUpLeg
      direction 0.000000 -1.000000 0.000000
      length 16.899758
      axis 0.0 0.0 0.0 xyz
      dof rx ry rz
   end
   begin
      id 28
      name RightLeg
      direction 0.000000 -1.000000 0.000000
      length 17.389183
      axis 0.0 0.0 0.0 xyz
      dof rx ry rz
   end
   begin
      id 29
      name RightFoot
      direction 0.000000 -0.258819 0.965926
      length 4.924528
      axis 15.0 0.0 0.0 xyz
      dof rx ry rz
   end
   begin
      id 30
      name RightToeBase
      direction 0.000000 0.000000 1.000000
      length 2.952750
      axis 0.0 0.0 0.0 xyz
      dof rx ry rz
   end
:hierarchy
   begin
      root Spine_dum LeftUpLeg_dum RightUpLeg_dum
      Spine_dum Spine
      LeftUpLeg_dum LeftUpLeg
      RightUpLeg_dum RightUpLeg
      Spine Spine_dum1 Spine_dum2 Spine_dum3
      Spine_dum1 Head
      Spine_dum2 LeftShoulder
      Spine_dum3 RightShoulder
      LeftShoulder LeftArm
      LeftArm LeftForeArm
      LeftForeArm LeftHand
      LeftHand LeftHand_dum1 LeftHand_dum2
      LeftHand_dum1 LeftHandThumb1
      RightShoulder RightArm
      RightArm RightForeArm
      RightForeArm RightHand
      RightHand RightHand_dum1 RightHand_dum2
      RightHand_dum1 RightHandThumb1
      LeftUpLeg LeftLeg
      LeftLeg LeftFoot
      LeftFoot LeftToeBase
      RightUpLeg RightLeg
      RightLeg RightFoot
      RightFoot RightToeBase
   end

# File created by Blade
# Date/Time:  Fri Jan 16 19:32:17 2015
# Frame Rate: 120.000 fps
#------------------------------------------------------
:FULLY-SPECIFIED
:DEGREES
107
root 19.291497 35.445025 -20.550365 8.958732 1.345214 -1.817829
Spine -19.028998 -4.770351 1.939829
Head 5.345562 5.117868 4.241957
LeftShoulder -10.049208 -2.029225 5.360483
LeftArm -77.223620 57.423214 -125.651905
LeftForeArm 22.438706 -0.000000 55.255092
LeftHand 0.088301 -0.000000 -22.362870
LeftHandThumb1 -26.253704 0.000000 33.147579
RightShoulder -12.846562 -4.738982 -7.774761
RightArm 1.019340 57.058288 5.873497
RightForeArm -3.504496 -0.000000 14.510173
RightHand -4.096312 0.000000 -1.816516
RightHandThumb1 -24.326973 -0.000000 -32.862282
LeftUpLeg 0.498670 8.310172 2.428170
LeftLeg -6.705186 -0.000000 0.000000
LeftFoot -21.174740 28.428708 -12.993780
LeftToeBase 26.643142 -0.000000 -0.000000
RightUpLeg -0.240587 -11.119170 0.029233
RightLeg -3.939492 -0.000000 0.000000
RightFoot -20.893100 -21.799335 17.237662
RightToeBase 25.382952 -0.000000 -0.000000
108
root 19.297458 35.444321 -20.541994 8.936628 1.325976 -1.820783
Spine -19.070394 -4.898593 1.936154
Head 5.542147 5.231362 4.303133
LeftShoulder -10.006494 -1.721735 4.873650
LeftArm -78.239750 56.718268 -128.036559
LeftForeArm 23.136242 -0.000000 56.716606
LeftHand 0.293206 -0.000000 -22.827083
LeftHandThumb1 -26.253704 0.000000 33.147579
RightShoulder -12.831046 -4.585183 -7.882880
RightArm 0.590816 57.985347 5.615043
RightForeArm -3.200120 0.000000 15.356970
RightHand -4.062679 -0.000000 -2.251266
RightHandThumb1 -24.326973 -0.000000 -32.862282
LeftUpLeg 0.527301 8.305203 2.426616
LeftLeg -6.677197 -0.000000 0.000000
LeftFoot -21.213615 28.425085 -13.008837
LeftToeBase 26.601138 -0.000000 -0.000000
RightUpLeg -0.226302 -11.093121 0.013037
RightLeg -3.899421 -0.000000 0.000000
RightFoot -20.918957 -21.790443 17.254748
RightToeBase 25.373524 -0.000000 -0.000000
109
root 19.302367 35.443406 -20.533711 8.923268 1.315956 -1.826895
Spine -19.121874 -4.992434 1.912980
Head 5.737803 5.296107 4.366249
LeftShoulder -9.928548 -1.490533 4.443101
LeftArm -79.471100 56.066815 -130.717254
LeftForeArm 23.810932 -0.000000 58.245555
LeftHand 0.282938 -0.000000 -22.924903
LeftHandThumb1 -26.253704 0.000000 33.147579
RightShoulder -12.895182 -4.469334 -7.982522
RightArm 0.250165 59.005486 5.448299
RightForeArm -2.859632 0.000000 16.225157
RightHand -3.881751 0.000000 -2.759643
RightHandThumb1 -24.326973 -0.000000 -32.862282
LeftUpLeg 0.547101 8.283919 2.427572
LeftLeg -6.660351 -0.000000 0.000000
LeftFoot -21.259039 28.465134 -13.007481
LeftToeBase 26.632006 -0.000000 -0.000000
RightUpLeg -0.213951 -11.055151 0.003920
RightLeg -3.877019 -0.000000 0.000000
RightFoot -20.970741 -21.884920 17.107886
RightToeBase 25.744945 -0.000000 -0.000000
110
root 19.305354 35.442480 -20.526520 8.886258 1.359516 -1.825908
Spine -19.133545 -5.145331 1.867092
Head 5.891965 5.358076 4.467717
LeftShoulder -9.908961 -1.189309 4.053420
LeftArm -80.611685 55.543120 -133.372616
LeftForeArm 24.657580 -0.000000 59.862444
LeftHand 0.598969 -0.000000 -23.618080
LeftHandThumb1 -26.253704 0.000000 33.147579
RightShoulder -12.883125 -4.310264 -8.041471
RightArm -0.396341 60.016016 5.005448
RightForeArm -2.621284 -0.000000 17.241332
RightHand -3.820125 -0.000000 -2.989801
RightHandThumb1 -24.326973 -0.000000 -32.862282
LeftUpLeg 0.560107 8.215597 2.436540
LeftLeg -6.599662 -0.000000 0.000000
LeftFoot -21.309136 28.485875 -13.011274
LeftToeBase 26.651398 -0.000000 -0.000000
RightUpLeg -0.167779 -11.070716 -0.010782
RightLeg -3.851444 -0.000000 0.000000
RightFoot -20.995855 -21.869542 17.141217
RightToeBase 25.715104 -0.000000 -0.000000
111
root 19.308274 35.442658 -20.518534 8.891234 1.370249 -1.839739
Spine -19.209142 -5.249475 1.857647
Head 6.067602 5.426770 4.514430
LeftShoulder -9.950908 -0.832483 3.664582
LeftArm -81.447809 55.072746 -135.689286
LeftForeArm 25.146658 0.000000 61.502228
LeftHand 0.567590 -0.000000 -23.748525
LeftHandThumb1 -26.253704 0.000000 33.147579
RightShoulder -12.923930 -4.114790 -8.144305
RightArm -0.947727 61.116175 4.631311
RightForeArm -2.375537 -0.000000 18.302382
RightHand -3.734686 -0.000000 -3.163884
RightHandThumb1 -24.326973 -0.000000 -32.862282
LeftUpLeg 0.550134 8.215973 2.449515
LeftLeg -6.564532 -0.000000 0.000000
LeftFoot -21.340196 28.461541 -13.004851
LeftToeBase 26.641632 -0.000000 -0.000000
RightUpLeg -0.173687 -11.044125 0.003012
RightLeg -3.827592 -0.000000 0.000000
RightFoot -21.010009 -21.852958 17.352558
RightToeBase 25.360558 -0.000000 -0.000000
112
root 19.310533 35.441773 -20.512243 8.888459 1.399021 -1.842600
Spine -19.282351 -5.363509 1.816444
Head 6.244325 5.439345 4.564111
LeftShoulder -9.918727 -0.580283 3.342335
LeftArm -82.253781 54.451433 -138.029303
LeftForeArm 25.385819 0.000000 63.059248
LeftHand 0.889821 -0.000000 -24.082786
LeftHandThumb1 -26.253704 0.000000 33.147579
RightShoulder -12.960319 -3.987153 -8.210420
RightArm -1.531717 62.225429 4.232440
RightForeArm -2.032585 -0.000000 19.455039
RightHand -3.761786 -0.000000 -3.609026
RightHandThumb1 -24.326973 -0.000000 -32.862282
LeftUpLeg 0.535303 8.186891 2.455397
LeftLeg -6.516292 -0.000000 0.000000
LeftFoot -21.380162 28.463057 -12.989914
LeftToeBase 26.665223 -0.000000 -0.000000
RightUpLeg -0.175300 -11.052091 0.004155
RightLeg -3.788151 -0.000000 0.000000
RightFoot -21.045182 -21.851600 17.379503
RightToeBase 25.328167 -0.000000 -0.000000
113
root 19.310966 35.441245 -20.504346 8.868126 1.434063 -1.840086
Spine -19.330732 -5.445645 1.755991
Head 6.407809 5.413356 4.602624
LeftShoulder -9.914736 -0.274912 3.029758
LeftArm -82.825276 53.931519 -140.039124
LeftForeArm 25.776483 -0.000000 64.830822
LeftHand 0.861687 -0.000000 -24.156763
LeftHandThumb1 -26.253704 0.000000 33.147579
RightShoulder -13.014385 -3.857182 -8.253428
RightArm -2.213066 63.341512 3.695846
RightForeArm -1.691061 0.000000 20.588791
RightHand -3.609069 -0.000000 -4.071037
RightHandThumb1 -24.326973 -0.000000 -32.862282
LeftUpLeg 0.545567 8.154307 2.472470
LeftLeg -6.462395 -0.000000 0.000000
LeftFoot -21.434191 28.353869 -13.056558
LeftToeBase 26.614462 -0.000000 -0.000000
RightUpLeg -0.152921 -11.053193 -0.000208
RightLeg -3.756646 -0.000000 0.000000
RightFoot -21.092636 -21.872486 17.418637
RightToeBase 25.329775 -0.000000 -0.000000
114
root 19.312356 35.441486 -20.497853 8.831222 1.488016 -1.809817
Spine -19.370704 -5.545256 1.648945
Head 6.628456 5.392266 4.697551
LeftShoulder -9.792303 -0.011757 2.739495
LeftArm -83.184126 53.283115 -141.849349
LeftForeArm 26.050992 -0.000000 66.550795
LeftHand 0.617670 -0.000000 -24.084010
LeftHandThumb1 -26.253704 0.000000 33.147579
RightShoulder -13.012606 -3.599882 -8.321151
RightArm -3.183700 64.387775 2.877169
RightForeArm -0.812933 -0.000000 21.739010
RightHand -3.328732 -0.000000 -4.310759
RightHandThumb1 -24.326973 -0.000000 -32.862282
LeftUpLeg 0.565284 8.097800 2.453369
LeftLeg -6.425301 -0.000000 0.000000
LeftFoot -21.461789 28.336958 -13.101977
LeftToeBase 26.637171 -0.000000 -0.000000
RightUpLeg -0.118354 -11.114194 -0.035623
RightLeg -3.714285 -0.000000 0.000000
RightFoot -21.164225 -21.912729 17.290087
RightToeBase 25.692415 -0.000000 -0.000000
115
root 19.316072 35.440595 -20.485939 8.802436 1.513802 -1.798780
Spine -19.428129 -5.607984 1.587035
Head 6.818465 5.350494 4.737417
LeftShoulder -9.822682 0.352473 2.421157
LeftArm -83.399387 52.841507 -143.414159
LeftForeArm 26.295299 -0.000000 68.401096
LeftHand 0.690356 -0.000000 -24.695062
LeftHandThumb1 -26.253704 0.000000 33.147579
RightShoulder -13.090350 -3.448131 -8.429020
RightArm -3.845140 65.503959 2.380920
RightForeArm -0.310618 -0.000000 22.957268
RightHand -3.159451 -0.000000 -4.838548
RightHandThumb1 -24.326973 -0.000000 -32.862282
LeftUpLeg 0.607068 8.107497 2.435960
LeftLeg -6.437366 -0.000000 0.000000
LeftFoot -21.431371 28.411832 -13.029995
LeftToeBase 26.659802 -0.000000 -0.000000
RightUpLeg -0.083172 -11.122932 -0.060348
RightLeg -3.671069 -0.000000 0.000000
RightFoot -21.193061 -21.826878 17.457314
RightToeBase 25.381349 -0.000000 -0.000000
116
root 19.315502 35.439906 -20.478508 8.780326 1.598539 -1.784904
Spine -19.491576 -5.721754 1.521957
Head 7.031168 5.284359 4.757201
LeftShoulder -9.812712 0.666898 2.117052
LeftArm -83.575318 52.365063 -144.939963
LeftForeArm 26.499756 0.000000 70.181448
LeftHand 0.723667 -0.000000 -24.584343
LeftHandThumb1 -26.253704 0.000000 33.147579
RightShoulder -13.124247 -3.274023 -8.531389
RightArm -4.766721 66.611249 1.609813
RightForeArm 0.467610 -0.000000 24.222588
RightHand -2.955790 -0.000000 -5.209485
RightHandThumb1 -24.326973 -0.000000 -32.862282
LeftUpLeg 0.607979 8.052036 2.446317
LeftLeg -6.381761 -0.000000 0.000000
LeftFoot -21.488999 28.287559 -13.104698
LeftToeBase 26.650587 -0.000000 -0.000000
RightUpLeg -0.053125 -11.188261 -0.070118
RightLeg -3.638799 -0.000000 0.000000
RightFoot -21.237471 -21.825944 17.491984
RightToeBase 25.343268 -0.000000 -0.000000
117
root 19.313378 35.439553 -20.472605 8.750406 1.731131 -1.757129
Spine -19.546499 -5.845075 1.421050
Head 7.256327 5.164201 4.814962
LeftShoulder -9.731694 0.926188 1.867488
LeftArm -83.739103 51.862225 -146.469013
LeftForeArm 26.510463 0.000000 71.899242
LeftHand 0.569989 -0.000000 -24.604353
LeftHandThumb1 -26.253704 0.000000 33.147579
RightShoulder -13.196540 -3.127291 -8.636684
RightArm -5.673707 67.595703 0.870227
RightForeArm 1.299886 0.000000 25.571284
RightHand -2.836126 -0.000000 -5.873738
RightHandThumb1 -24.326973 -0.000000 -32.862282
LeftUpLeg 0.599622 7.956969 2.443884
LeftLeg -6.329273 -0.000000 0.000000
LeftFoot -21.506085 28.238684 -13.116697
LeftToeBase 26.658614 -0.000000 -0.000000
RightUpLeg -0.007552 -11.289879 -0.087574
RightLeg -3.612671 -0.000000 0.000000
RightFoot -21.294734 -21.824382 17.526040
RightToeBase 25.341414 -0.000000 -0.000000
